<svg xmlns="http://www.w3.org/2000/svg" viewBox="0 0 1200 800">
  <defs>
    <linearGradient id="bg" x1="0%" y1="0%" x2="100%" y2="100%">
      <stop offset="0%" stop-color="#071521"/>
      <stop offset="50%" stop-color="#0d1d34"/>
      <stop offset="100%" stop-color="#160824"/>
    </linearGradient>
    <linearGradient id="glow" x1="0%" y1="0%" x2="100%" y2="0%">
      <stop offset="0%" stop-color="#00f2ff"/>
      <stop offset="100%" stop-color="#bd00ff"/>
    </linearGradient>
  </defs>
  <rect width="1200" height="800" fill="url(#bg)"/>
  <circle cx="215" cy="120" r="180" fill="#00f2ff" fill-opacity="0.12"/>
  <circle cx="1030" cy="690" r="230" fill="#bd00ff" fill-opacity="0.12"/>
  <rect x="180" y="120" width="840" height="560" rx="32" fill="#0c1322" fill-opacity="0.88" stroke="url(#glow)" stroke-width="4"/>
  <rect x="230" y="170" width="740" height="320" rx="24" fill="#121b30"/>
  <path d="M320 430l120-118 102 100 168-160 170 178H320z" fill="#1d3152"/>
  <circle cx="800" cy="255" r="44" fill="#00f2ff" fill-opacity="0.35"/>
  <rect x="320" y="540" width="260" height="18" rx="9" fill="#dce7ff" fill-opacity="0.9"/>
  <rect x="320" y="576" width="360" height="12" rx="6" fill="#9daecc" fill-opacity="0.7"/>
  <rect x="320" y="612" width="180" height="12" rx="6" fill="#9daecc" fill-opacity="0.45"/>
  <g transform="translate(760 530)">
    <circle cx="80" cy="80" r="72" fill="#0e1830" stroke="#00f2ff" stroke-opacity="0.6" stroke-width="3"/>
    <path d="M47 62h41c24 0 41 11 41 31 0 23-20 34-44 34H66v31H47V62zm19 16v33h20c15 0 24-5 24-16 0-12-9-17-24-17H66z" fill="#f4f8ff"/>
  </g>
  <text x="600" y="735" text-anchor="middle" fill="#dfe8fb" font-family="Segoe UI, Arial, sans-serif" font-size="34" font-weight="600" letter-spacing="3">
    AUCTION IMAGE COMING SOON
  </text>
</svg>
